# xmcd
#
# Track frame offsets: 
#        182
#        14655
#        29665
#        43415
#        56885
#        70482
#        85440
#        99860
#        115482
#        127100
#        140242
#        154422
#        167795
#        180757
#
# Disc length: 2586 seconds
#
# Revision: 2
# Processed by: cddbd v1.5.2PL0 Copyright (c) Steve Scherf et al.
# Submitted via: ExactAudioCopyFreeDBPlugin 1.0
#
DISCID=d70a180e
DTITLE=Various Artist - Roots of Rock [Yazoo 1063]
DYEAR=1991
DGENRE=Blues
TTITLE0=Kansas Joe and Memphis Minnie - When the Levee Breaks
TTITLE1=Tommy Johnson - Big Road Blues
TTITLE2=Hambone Willie Newbern - Roll and Tumble Blues
TTITLE3=Blind Blake - Diddie Wa Diddie
TTITLE4=Bukka White - Shake 'Em on Down
TTITLE5=Bo Carter - Corrine Corrina
TTITLE6=Charley Patton - A Spoonful Blues
TTITLE7=Henry Thomas - Bull Doze Blues
TTITLE8=Blind Willie McTell - Statesboro Blues
TTITLE9=Robert Wilkins - That's No Way to Get Along
TTITLE10=Blind Blake - That Will Never Happen No More
TTITLE11=Cannon's Jug Stompers - Walk Right In
TTITLE12=Skip James - I'm So Glad
TTITLE13=Blind Joe Reynolds - Outside Woman Blues
EXTD=Yazoo 1063, 1991
EXTT0=Kansas Joe and Memphis Minnie
EXTT1=Tommy Johnson
EXTT2=Hambone Willie Newbern
EXTT3=Blind Blake
EXTT4=Bukka White
EXTT5=Bo Carter
EXTT6=Charley Patton
EXTT7=Henry Thomas
EXTT8=Blind Willie McTell
EXTT9=Robert Wilkins
EXTT10=Blind Blake
EXTT11=Cannon's Jug Stompers
EXTT12=Skip James
EXTT13=Blind Joe Reynolds
PLAYORDER=
